# xmcd
#
# Track frame offsets:
#	150
#	21092
#	37651
#	46283
#	68144
#	83814
#	103638
#	122543
#	137878
#	159206
#	179887
#
# Disc length: 2929 seconds
#
# Revision: 1
# Processed by: cddbd v1.5PL3 Copyright (c) Steve Scherf et al.
# Submitted via: audiograbber 1.82.01
#
DISCID=880b6f0b
DTITLE=B B King - 2001-06-30 - Piazza Blues Festival,Bellinzona, Switzerland - 
DTITLE=Disc 2
DYEAR=1900
DGENRE=
TTITLE0=B B King - Early In The Morning
TTITLE1=B B King - Ain`t That Just Like A Woman
TTITLE2=B B King - You Are My Sunshine
TTITLE3=B B King - How Blue Can You Get
TTITLE4=B B King - Days Of Old
TTITLE5=B B King - Key To The Highway
TTITLE6=B B King - The Thrill Is Gone
TTITLE7=B B King - I Know
TTITLE8=B B King - Don`t Go No Farther
TTITLE9=B B King - Please Accept My Love
TTITLE10=B B King - Makin` Love Is Good For You
EXTD=
EXTT0=
EXTT1=
EXTT2=
EXTT3=
EXTT4=
EXTT5=
EXTT6=
EXTT7=
EXTT8=
EXTT9=
EXTT10=
PLAYORDER=
